<?xml version="1.0" encoding="UTF-8" standalone="no"?>
<!DOCTYPE svg PUBLIC "-//W3C//DTD SVG 1.1//EN"
 "http://www.w3.org/Graphics/SVG/1.1/DTD/svg11.dtd">
<!-- Generated by graphviz version 2.47.0 (20210316.0004)
 -->
<!-- Title: dependencies Pages: 1 -->
<svg width="1121pt" height="211pt"
 viewBox="0.00 0.00 1121.00 211.00" xmlns="http://www.w3.org/2000/svg" xmlns:xlink="http://www.w3.org/1999/xlink">
<g id="graph0" class="graph" transform="scale(1 1) rotate(0) translate(4 207)">
<title>dependencies</title>
<polygon fill="white" stroke="transparent" points="-4,4 -4,-207 1117,-207 1117,4 -4,4"/>
<text text-anchor="start" x="535.51" y="-42.4" font-family="Times-12" font-weight="bold" font-size="14.00">Legend</text>
<polygon fill="#ffffb3" stroke="transparent" points="322.5,-10 322.5,-30 342.5,-30 342.5,-10 322.5,-10"/>
<text text-anchor="start" x="346.13" y="-15.4" font-family="Times-12" font-size="14.00"> &#160;Declarations</text>
<polygon fill="#8dd3c7" stroke="transparent" points="435.5,-10 435.5,-30 455.5,-30 455.5,-10 435.5,-10"/>
<text text-anchor="start" x="459.23" y="-15.4" font-family="Times-12" font-size="14.00"> &#160;Module</text>
<polygon fill="#80b1d3" stroke="transparent" points="521.5,-10 521.5,-30 541.5,-30 541.5,-10 521.5,-10"/>
<text text-anchor="start" x="545.28" y="-15.4" font-family="Times-12" font-size="14.00"> &#160;Bootstrap</text>
<polygon fill="#fdb462" stroke="transparent" points="618.5,-10 618.5,-30 638.5,-30 638.5,-10 618.5,-10"/>
<text text-anchor="start" x="642.17" y="-15.4" font-family="Times-12" font-size="14.00"> &#160;Providers</text>
<polygon fill="#fb8072" stroke="transparent" points="714.5,-10 714.5,-30 734.5,-30 734.5,-10 714.5,-10"/>
<text text-anchor="start" x="738.23" y="-15.4" font-family="Times-12" font-size="14.00"> &#160;Exports</text>
<g id="clust1" class="cluster">
<title>cluster_AppModule</title>
<polygon fill="none" stroke="black" stroke-dasharray="1,5" points="8,-70 8,-195 1105,-195 1105,-70 8,-70"/>
</g>
<g id="clust3" class="cluster">
<title>cluster_AppModule_imports</title>
<polygon fill="none" stroke="black" points="16,-78 16,-130 1097,-130 1097,-78 16,-78"/>
</g>
<!-- AuthModule -->
<g id="node1" class="node">
<title>AuthModule</title>
<polygon fill="#8dd3c7" stroke="black" points="1088.55,-122 1085.55,-126 1064.55,-126 1061.55,-122 1001.45,-122 1001.45,-86 1088.55,-86 1088.55,-122"/>
<text text-anchor="middle" x="1045" y="-99.8" font-family="Times,serif" font-size="14.00">AuthModule</text>
</g>
<!-- AppModule -->
<g id="node10" class="node">
<title>AppModule</title>
<polygon fill="#8dd3c7" stroke="black" points="613.66,-187 610.66,-191 589.66,-191 586.66,-187 530.34,-187 530.34,-151 613.66,-151 613.66,-187"/>
<text text-anchor="middle" x="572" y="-164.8" font-family="Times,serif" font-size="14.00">AppModule</text>
</g>
<!-- AuthModule&#45;&gt;AppModule -->
<g id="edge1" class="edge">
<title>AuthModule&#45;&gt;AppModule</title>
<path fill="none" stroke="black" d="M1045,-122.01C1045,-144.49 1045,-180 1045,-180 1045,-180 623.98,-180 623.98,-180"/>
<polygon fill="black" stroke="black" points="623.98,-176.5 613.98,-180 623.98,-183.5 623.98,-176.5"/>
</g>
<!-- AwsModule -->
<g id="node2" class="node">
<title>AwsModule</title>
<polygon fill="#8dd3c7" stroke="black" points="983.71,-122 980.71,-126 959.71,-126 956.71,-122 898.29,-122 898.29,-86 983.71,-86 983.71,-122"/>
<text text-anchor="middle" x="941" y="-99.8" font-family="Times,serif" font-size="14.00">AwsModule</text>
</g>
<!-- AwsModule&#45;&gt;AppModule -->
<g id="edge2" class="edge">
<title>AwsModule&#45;&gt;AppModule</title>
<path fill="none" stroke="black" d="M941,-122.13C941,-142.57 941,-173 941,-173 941,-173 623.97,-173 623.97,-173"/>
<polygon fill="black" stroke="black" points="623.97,-169.5 613.97,-173 623.97,-176.5 623.97,-169.5"/>
</g>
<!-- ExercisesModule -->
<g id="node3" class="node">
<title>ExercisesModule</title>
<polygon fill="#8dd3c7" stroke="black" points="880.69,-122 877.69,-126 856.69,-126 853.69,-122 767.31,-122 767.31,-86 880.69,-86 880.69,-122"/>
<text text-anchor="middle" x="824" y="-99.8" font-family="Times,serif" font-size="14.00">ExercisesModule</text>
</g>
<!-- ExercisesModule&#45;&gt;AppModule -->
<g id="edge3" class="edge">
<title>ExercisesModule&#45;&gt;AppModule</title>
<path fill="none" stroke="black" d="M824,-122.27C824,-140.56 824,-166 824,-166 824,-166 623.9,-166 623.9,-166"/>
<polygon fill="black" stroke="black" points="623.9,-162.5 613.9,-166 623.9,-169.5 623.9,-162.5"/>
</g>
<!-- MealsModule -->
<g id="node4" class="node">
<title>MealsModule</title>
<polygon fill="#8dd3c7" stroke="black" points="749.76,-122 746.76,-126 725.76,-126 722.76,-122 656.24,-122 656.24,-86 749.76,-86 749.76,-122"/>
<text text-anchor="middle" x="703" y="-99.8" font-family="Times,serif" font-size="14.00">MealsModule</text>
</g>
<!-- MealsModule&#45;&gt;AppModule -->
<g id="edge4" class="edge">
<title>MealsModule&#45;&gt;AppModule</title>
<path fill="none" stroke="black" d="M703,-122.01C703,-138.05 703,-159 703,-159 703,-159 623.81,-159 623.81,-159"/>
<polygon fill="black" stroke="black" points="623.81,-155.5 613.81,-159 623.81,-162.5 623.81,-155.5"/>
</g>
<!-- NotificationsModule -->
<g id="node5" class="node">
<title>NotificationsModule</title>
<polygon fill="#8dd3c7" stroke="black" points="638.14,-122 635.14,-126 614.14,-126 611.14,-122 505.86,-122 505.86,-86 638.14,-86 638.14,-122"/>
<text text-anchor="middle" x="572" y="-99.8" font-family="Times,serif" font-size="14.00">NotificationsModule</text>
</g>
<!-- NotificationsModule&#45;&gt;AppModule -->
<g id="edge5" class="edge">
<title>NotificationsModule&#45;&gt;AppModule</title>
<path fill="none" stroke="black" d="M572,-122.11C572,-122.11 572,-140.99 572,-140.99"/>
<polygon fill="black" stroke="black" points="568.5,-140.99 572,-150.99 575.5,-140.99 568.5,-140.99"/>
</g>
<!-- NutritionModule -->
<g id="node6" class="node">
<title>NutritionModule</title>
<polygon fill="#8dd3c7" stroke="black" points="487.38,-122 484.38,-126 463.38,-126 460.38,-122 376.62,-122 376.62,-86 487.38,-86 487.38,-122"/>
<text text-anchor="middle" x="432" y="-99.8" font-family="Times,serif" font-size="14.00">NutritionModule</text>
</g>
<!-- NutritionModule&#45;&gt;AppModule -->
<g id="edge6" class="edge">
<title>NutritionModule&#45;&gt;AppModule</title>
<path fill="none" stroke="black" d="M432,-122.01C432,-138.05 432,-159 432,-159 432,-159 520,-159 520,-159"/>
<polygon fill="black" stroke="black" points="520,-162.5 530,-159 520,-155.5 520,-162.5"/>
</g>
<!-- StripeModule -->
<g id="node7" class="node">
<title>StripeModule</title>
<polygon fill="#8dd3c7" stroke="black" points="358.49,-122 355.49,-126 334.49,-126 331.49,-122 265.51,-122 265.51,-86 358.49,-86 358.49,-122"/>
<text text-anchor="middle" x="312" y="-99.8" font-family="Times,serif" font-size="14.00">StripeModule</text>
</g>
<!-- StripeModule&#45;&gt;AppModule -->
<g id="edge7" class="edge">
<title>StripeModule&#45;&gt;AppModule</title>
<path fill="none" stroke="black" d="M312,-122.27C312,-140.56 312,-166 312,-166 312,-166 520.23,-166 520.23,-166"/>
<polygon fill="black" stroke="black" points="520.23,-169.5 530.23,-166 520.23,-162.5 520.23,-169.5"/>
</g>
<!-- UsersModule -->
<g id="node8" class="node">
<title>UsersModule</title>
<polygon fill="#8dd3c7" stroke="black" points="247.92,-122 244.92,-126 223.92,-126 220.92,-122 156.08,-122 156.08,-86 247.92,-86 247.92,-122"/>
<text text-anchor="middle" x="202" y="-99.8" font-family="Times,serif" font-size="14.00">UsersModule</text>
</g>
<!-- UsersModule&#45;&gt;AppModule -->
<g id="edge8" class="edge">
<title>UsersModule&#45;&gt;AppModule</title>
<path fill="none" stroke="black" d="M202,-122.13C202,-142.57 202,-173 202,-173 202,-173 520.28,-173 520.28,-173"/>
<polygon fill="black" stroke="black" points="520.28,-176.5 530.28,-173 520.28,-169.5 520.28,-176.5"/>
</g>
<!-- WorkoutsModule -->
<g id="node9" class="node">
<title>WorkoutsModule</title>
<polygon fill="#8dd3c7" stroke="black" points="138.26,-122 135.26,-126 114.26,-126 111.26,-122 23.74,-122 23.74,-86 138.26,-86 138.26,-122"/>
<text text-anchor="middle" x="81" y="-99.8" font-family="Times,serif" font-size="14.00">WorkoutsModule</text>
</g>
<!-- WorkoutsModule&#45;&gt;AppModule -->
<g id="edge9" class="edge">
<title>WorkoutsModule&#45;&gt;AppModule</title>
<path fill="none" stroke="black" d="M81,-122.01C81,-144.49 81,-180 81,-180 81,-180 520.14,-180 520.14,-180"/>
<polygon fill="black" stroke="black" points="520.14,-183.5 530.14,-180 520.14,-176.5 520.14,-183.5"/>
</g>
</g>
</svg>
